<svg xmlns="http://www.w3.org/2000/svg" viewBox="0 0 465.2 520.7"><defs><style>.cls-1{fill:#fff;}.cls-2{fill:#1ed760;}</style></defs><title>Recurso 1</title><g id="Capa_2" data-name="Capa 2"><g id="Capa_1-2" data-name="Capa 1"><path class="cls-1" d="M465.2,146V276.9a65.05,65.05,0,0,0-103.6,0V146a51.8,51.8,0,1,1,103.6,0Z"/><path class="cls-2" d="M361.6,468.9V316.2a51.81,51.81,0,0,1,51.8-51.8h0a51.81,51.81,0,0,1,51.8,51.8V468.9a51.81,51.81,0,0,1-51.8,51.8h0A51.81,51.81,0,0,1,361.6,468.9Z"/><path class="cls-1" d="M284.5,51.8V260.4a65.15,65.15,0,0,0-103.7,0V51.8a51.85,51.85,0,0,1,103.7,0Z"/><path class="cls-2" d="M180.9,374.7v-75a51.81,51.81,0,0,1,51.8-51.8h0a51.81,51.81,0,0,1,51.8,51.8v75a51.81,51.81,0,0,1-51.8,51.8h0A51.81,51.81,0,0,1,180.9,374.7Z"/><path class="cls-1" d="M103.7,356.8V468.9A51.8,51.8,0,1,1,.1,469V357a64.9,64.9,0,0,0,103.6-.2Z"/><path class="cls-2" d="M0,317.6V146A51.81,51.81,0,0,1,51.8,94.2h0A51.81,51.81,0,0,1,103.6,146V317.5a51.81,51.81,0,0,1-51.8,51.8h0A51.66,51.66,0,0,1,0,317.6Z"/></g></g></svg>